Coordinates
version=1
nRows=21
nColumns=33
inDegrees=yes

Units are S.I. units (second, meters, Newtons, ...)
Angles are in degrees.

endheader
time	ground_thorax_rot_x	ground_thorax_rot_y	ground_thorax_rot_z	ground_thorax_tx	ground_thorax_ty	ground_thorax_tz	clav_prot_r	clav_elev_r	scapula_abduction_r	scapula_elevation_r	scapula_upward_rot_r	scapula_winging_r	shoulder_elv_r	plane_of_elev_r	axial_rot_r	elbow_flexion_r	pro_sup_r	wrist_flex_r	wrist_dev_r	clav_prot_l	clav_elev_l	scapula_abduction_l	scapula_elevation_l	scapula_upward_rot_l	scapula_winging_l	shoulder_elv_l	plane_of_elev_l	axial_rot_l	elbow_flexion_l	pro_sup_l	wrist_flex_l	wrist_dev_l
      2.63000000	      1.96347918	      4.23581823	     12.93085482	     -0.12325520	      1.03519021	      0.02970912	      2.95049103	     11.87974653	     15.39926634	      7.56781158	     23.18001058	     -9.75653737	     16.34177220	    -75.53105955	     56.53544537	     58.31365458	    -19.89576647	     70.00000021	    -24.99999983	     12.43960774	     -4.49739653	    -18.95854465	    -21.25819124	    -43.61150384	      0.50045637	     61.00899862	    -38.02406319	     -2.99090412	     70.11087519	     20.12091336	     -0.83407543	    -24.99999983
      2.64000000	      1.68068046	      4.50156282	     12.96633498	     -0.12377141	      1.03532073	      0.03000712	      2.73943766	     11.10265814	     14.72336291	      7.13262880	     22.51905690	     -9.44613069	     16.91715029	    -75.59470404	     55.66537286	     58.60810577	    -18.68950820	     70.00000021	    -24.99999983	     12.42511028	     -4.77941228	    -19.17444005	    -21.32926389	    -44.36871379	      0.49660808	     62.28314642	    -37.86508264	     -3.33119974	     70.17773289	     20.41185954	     -0.80231360	    -24.99999983
      2.65000000	      1.67032836	      4.51444564	     13.09419473	     -0.12424452	      1.03480884	      0.02991602	      2.71915119	     11.08666169	     14.72879374	      7.10364015	     22.56512258	     -9.45396241	     16.93485454	    -75.53731705	     55.64506292	     58.63574712	    -18.67795102	     70.00000021	    -24.99999983	     12.41365053	     -4.80340687	    -19.15336546	    -21.30518032	    -44.36481510	      0.49252826	     62.27859181	    -37.81444344	     -3.31850690	     70.18192417	     20.41262823	     -0.80435607	    -24.99999983
      2.66000000	      1.68321900	      4.48407801	     13.30739864	     -0.12444238	      1.03445153	      0.03009293	      2.58548672	     11.10093821	     14.51099242	      7.10100380	     22.61845496	     -9.39900207	     17.05505699	    -75.47303662	     55.50314260	     58.78774198	    -18.58500921	     70.00000021	    -24.99999983	     12.33561373	     -4.86496847	    -19.04595809	    -21.29287560	    -44.45792961	      0.42962486	     62.30029188	    -37.70261146	     -3.08666893	     69.93203715	     20.44634201	     -0.82660400	    -24.99999983
      2.67000000	      1.66487090	      4.50730404	     13.44751332	     -0.12480225	      1.03400503	      0.03001875	      2.56836866	     11.08104691	     14.52955204	      7.06634550	     22.67217861	     -9.41618881	     17.09251596	    -75.38984009	     55.46452964	     58.83148566	    -18.57929464	     70.00000021	    -24.99999983	     12.33096509	     -4.89796402	    -19.02847548	    -21.24385745	    -44.41665156	      0.43326598	     62.32418451	    -37.60614065	     -3.06620510	     69.96490223	     20.44488097	     -0.83261772	    -24.99999983
      2.68000000	      1.72479582	      4.52494902	     13.27492561	     -0.12491508	      1.03361880	      0.03029637	      2.39870349	     11.05609132	     14.21847839	      7.04735912	     22.67829611	     -9.32523168	     17.42152432	    -75.15718205	     55.08654475	     59.34059805	    -18.50177740	     70.00000021	    -24.99999983	     12.26593879	     -5.04063206	    -18.91652871	    -21.12175558	    -44.43809492	      0.39085726	     62.48803322	    -37.23414422	     -2.71371082	     69.81735338	     20.48401257	     -0.88671205	    -24.99999983
      2.69000000	      1.71272811	      4.53951113	     13.42700889	     -0.12513590	      1.03319555	      0.03032896	      2.38765870	     11.04681451	     14.24704848	      7.02025603	     22.73348920	     -9.33855278	     17.46769699	    -75.08980343	     55.04732698	     59.36097942	    -18.50406686	     70.00000021	    -24.99999983	     12.27493240	     -5.05633509	    -18.91477331	    -21.08118026	    -44.38201898	      0.40019662	     62.53397463	    -37.15844210	     -2.69098310	     69.84919073	     20.48031745	     -0.89227023	    -24.99999983
      2.70000000	      1.68046957	      4.55139469	     13.56592803	     -0.12529661	      1.03291371	      0.03032003	      2.37530187	     11.04293671	     14.27214612	      6.99877047	     22.78752041	     -9.35629402	     17.51860317	    -75.02461451	     55.00330065	     59.39190493	    -18.50753135	     70.00000021	    -24.99999983	     12.28238296	     -5.07739930	    -18.91045527	    -21.03657898	    -44.32739073	      0.41113902	     62.57879286	    -37.07947046	     -2.66556408	     69.88084714	     20.47602907	     -0.89760361	    -24.99999983
      2.71000000	      1.72982911	      4.59418442	     13.25823577	     -0.12528960	      1.03246126	      0.03056838	      2.25525993	     11.04913029	     13.99099173	      7.02566511	     22.73529799	     -9.26951805	     18.00877151	    -74.82770559	     54.56122141	     60.15221263	    -18.47930048	     70.00000021	    -24.99999983	     12.29337371	     -5.23739186	    -18.95126527	    -20.91689429	    -44.39988398	      0.43283642	     62.83348121	    -36.71922392	     -2.37698983	     70.02763929	     20.45657142	     -0.91281662	    -24.99999983
      2.72000000	      1.71135329	      4.60016275	     13.39049657	     -0.12526591	      1.03239450	      0.03066850	      2.24795972	     11.04791794	     14.01535464	      7.01021732	     22.77802637	     -9.28355368	     18.05544743	    -74.77710618	     54.52720234	     60.17347164	    -18.48230464	     70.00000021	    -24.99999983	     12.30685146	     -5.25039718	    -18.95820347	    -20.88038167	    -44.34667274	      0.44612355	     62.88634592	    -36.65395410	     -2.35179224	     70.05440153	     20.45091908	     -0.91589199	    -24.99999983
      2.73000000	      1.67864049	      4.60430916	     13.50853337	     -0.12519493	      1.03245674	      0.03072374	      2.24150729	     11.05171983	     14.04492936	      6.99671543	     22.82825972	     -9.30005075	     18.10687579	    -74.71945879	     54.48944049	     60.21647361	    -18.48510846	     70.00000021	    -24.99999983	     12.32254000	     -5.26589876	    -18.96823885	    -20.84079850	    -44.29146544	      0.46185467	     62.94215733	    -36.58296422	     -2.32641738	     70.09249025	     20.44320891	     -0.91830617	    -24.99999983
      2.74000000	      1.53852657	      5.04552727	     13.50064598	     -0.12576520	      1.03210254	      0.03105095	      2.25533992	     10.58462345	     12.99670646	      7.10855902	     21.35336803	     -8.76938172	     20.65532910	    -74.20758749	     54.89673925	     61.73333430	    -17.93246182	     70.00000021	    -24.99999983	     13.16759370	     -5.58544161	    -20.67479364	    -20.80490690	    -45.00000000	      1.16490167	     62.86839482	    -36.01383474	     -1.60334659	     70.57573965	     19.55825617	      0.38556875	    -24.99999983
      2.75000000	      1.51902682	      5.03276909	     13.63737787	     -0.12557572	      1.03240755	      0.03118626	      2.24616766	     10.58599645	     13.03430913	      7.08621435	     21.42078465	     -8.78729403	     20.68706949	    -74.14356682	     54.87501418	     61.77594198	    -17.93429661	     70.00000021	    -24.99999983	     13.18580300	     -5.59585047	    -20.68338341	    -20.76583863	    -44.93444967	      1.18026214	     62.92626411	    -35.93271703	     -1.57790259	     70.62252121	     19.55004569	      0.38154873	    -24.99999983
      2.76000000	      1.53645249	      5.05451596	     13.37609933	     -0.12536975	      1.03197116	      0.03130862	      2.17638925	     10.80646203	     13.15434015	      7.13652932	     21.82424417	     -8.89488447	     20.85028211	    -74.10295108	     54.90990246	     62.50354091	    -17.95490961	     70.00000021	    -24.99999983	     13.28343959	     -5.60814203	    -20.87635883	    -20.77669987	    -45.00000000	      1.26232204	     63.14206965	    -35.57273968	     -1.39947031	     71.08461363	     19.42326070	      0.45434844	    -24.99999983
      2.77000000	      1.48279554	      5.00704754	     13.38489163	     -0.12523749	      1.03221690	      0.03155278	      2.16792923	     10.84671783	     13.28105156	      7.10674930	     22.00944234	     -8.96231809	     20.90591142	    -73.95235110	     54.92049428	     62.86463722	    -17.95837181	     69.99892587	    -24.99999983	     13.36752910	     -5.65262980	    -21.00960981	    -20.71342813	    -44.96336376	      1.33570218	     63.29899667	    -35.42179668	     -1.35298369	     71.12194319	     19.37346062	      0.50545232	    -24.99999983
      2.78000000	      1.48513197	      5.06658252	     13.26052471	     -0.12505507	      1.03226473	      0.03169344	      2.17139985	     10.92899655	     13.43588266	      7.10364028	     22.22082518	     -9.04037971	     21.03575608	    -73.84099905	     54.88416394	     63.34746128	    -17.99372598	     69.95721553	    -24.99999983	     13.46996558	     -5.71597929	    -21.15741529	    -20.60851560	    -44.87447983	      1.42566179	     63.48895216	    -35.12371986	     -1.27277264	     71.34919816	     19.27019539	      0.58979441	    -24.99999983
      2.79000000	      1.63986405	      5.34496234	     13.24559158	     -0.12526342	      1.03275088	      0.03195654	      1.99895446	     10.88997555	     13.43804197	      6.94394977	     22.59445875	     -9.09408253	     22.15288324	    -74.46517682	     55.17866821	     64.81414889	    -18.62817019	     66.55649292	    -24.99999983	     14.11964616	     -6.24321976	    -22.31480976	    -20.13280029	    -45.00000000	      2.00044122	     63.09115865	    -34.72517676	     -0.68940731	     71.46396276	     17.72881194	      2.76501030	    -24.99999983
      2.80000000	      1.52965505	      5.29402219	     13.31402347	     -0.12500107	      1.03292803	      0.03217977	      1.98337105	     10.91153468	     13.55238782	      6.90192430	     22.77188832	     -9.15468326	     22.22622935	    -74.20323904	     55.12844547	     65.15972196	    -18.54282125	     66.55162133	    -24.99999983	     14.18678857	     -6.23807069	    -22.39927626	    -20.09126053	    -44.90408389	      2.05464329	     63.29009645	    -34.57667733	     -0.61433263	     71.55061849	     17.69421154	      2.79420382	    -24.99999983
      2.81000000	      1.47340452	      5.31928247	     13.23300168	     -0.12476771	      1.03298442	      0.03232785	      1.99163222	     10.93203298	     13.71894871	      6.85566169	     22.95587529	     -9.22654563	     22.36096206	    -73.91331580	     55.02696487	     65.58123421	    -18.46975243	     66.44385166	    -24.99999983	     14.27868403	     -6.26956474	    -22.50488063	    -19.98439993	    -44.74169509	      2.13640935	     63.53021803	    -34.26198998	     -0.56100928	     71.72287403	     17.62849943	      2.86863707	    -24.99999983
      2.82000000	      1.36198176	      5.55684382	     13.30369892	     -0.12473276	      1.03280981	      0.03276774	      1.81640530	     10.88654858	     13.23772665	      6.88483250	     22.77024469	     -9.06683744	     23.95368353	    -74.06264138	     54.52300940	     67.76420433	    -16.51696353	     59.10313129	    -24.99999983	     14.72372197	     -6.37060357	    -23.35728131	    -19.97598612	    -45.00000000	      2.52010404	     63.68924530	    -33.60281153	      0.02830037	     71.93495109	     16.01117957	      6.28751447	    -24.99999983
      2.83000000	      1.50124200	      5.58749385	     13.15482455	     -0.12454125	      1.03337014	      0.03290618	      1.77535783	     10.83039865	     13.40575447	      6.74681104	     23.03218862	     -9.14367800	     24.40119388	    -73.82077035	     54.18882698	     68.02769188	    -15.94502306	     58.77858655	    -24.99999983	     14.80948468	     -6.68267583	    -23.49348775	    -19.68243017	    -45.00000000	      2.60720631	     63.96335291	    -32.97870007	      0.18588996	     71.75225440	     16.03804738	      6.39511828	    -24.99999983
